<?xml version="1.0" encoding="UTF-8"?>
<svg version="1.1" xmlns="http://www.w3.org/2000/svg" width="100" height="81">
<path d="M0 0 C2.5625 0.1875 2.5625 0.1875 4.5625 2.1875 C4.80300903 4.36416626 4.80300903 4.36416626 4.78955078 7.09619141 C4.78932419 8.62755234 4.78932419 8.62755234 4.78909302 10.18984985 C4.77877045 11.29509003 4.76844788 12.4003302 4.7578125 13.5390625 C4.7549826 14.6682309 4.75215271 15.79739929 4.74923706 16.96078491 C4.73801462 20.57812971 4.71290622 24.19522966 4.6875 27.8125 C4.67747287 30.2604131 4.66834656 32.70833007 4.66015625 35.15625 C4.63806857 41.16675064 4.60457074 47.17710783 4.5625 53.1875 C16.73148461 44.14689844 16.73148461 44.14689844 28.625 34.75 C41.65946227 24.12985929 41.65946227 24.12985929 45.5 24.375 C47.5625 25.1875 47.5625 25.1875 48.375 26.875 C48.436875 27.638125 48.49875 28.40125 48.5625 29.1875 C45.14099265 32.9587897 41.29318536 36.20221221 37.375 39.4375 C36.84197266 39.88351563 36.30894531 40.32953125 35.75976562 40.7890625 C31.82321429 44.05714286 31.82321429 44.05714286 29.5625 45.1875 C30.04519089 49.4412135 32.71764378 51.81743373 35.5625 54.75 C40.85083398 60.35063717 45.78677254 66.13824522 50.5625 72.1875 C51.43841797 73.24710938 51.43841797 73.24710938 52.33203125 74.328125 C53.5625 76.1875 53.5625 76.1875 53.25 78.9375 C53.023125 79.68 52.79625 80.4225 52.5625 81.1875 C49.89453125 81.51953125 49.89453125 81.51953125 46.5625 81.1875 C44.48116047 79.44646708 42.95484704 77.93020093 41.25 75.875 C40.77997559 75.33536621 40.30995117 74.79573242 39.82568359 74.23974609 C38.38381862 72.57208789 36.96994488 70.88426125 35.5625 69.1875 C34.72589844 68.18589844 33.88929687 67.18429688 33.02734375 66.15234375 C30.85252397 63.51278786 28.70474424 60.85349934 26.5625 58.1875 C24.90449521 56.18003284 23.23460952 54.18324362 21.5625 52.1875 C18.35680134 54.25694047 15.27618744 56.36579931 12.30859375 58.765625 C11.76396484 59.20390625 11.21933594 59.6421875 10.65820312 60.09375 C9.54270824 60.99770816 8.43339346 61.90934077 7.33007812 62.828125 C4.76877965 64.86987183 3.01072162 66.13077869 -0.27734375 66.546875 C-2.4375 66.1875 -2.4375 66.1875 -3.4375 65.1875 C-3.53680533 63.19862506 -3.56549462 61.20619583 -3.56689453 59.21484375 C-3.57004669 57.93681885 -3.57319885 56.65879395 -3.57644653 55.34204102 C-3.57465675 53.93636033 -3.5726058 52.53067995 -3.5703125 51.125 C-3.57098558 49.69392887 -3.57195564 48.26285785 -3.57321167 46.83178711 C-3.57468844 43.82892776 -3.57253476 40.8260981 -3.56787109 37.82324219 C-3.56217381 33.96597429 -3.56545292 30.10877596 -3.57144356 26.25151062 C-3.57504974 23.29536409 -3.57391032 20.33923417 -3.57131577 17.38308716 C-3.57064665 15.96045931 -3.57147437 14.53782997 -3.57379532 13.11520386 C-3.57632274 11.13018826 -3.57179042 9.14516741 -3.56689453 7.16015625 C-3.56609894 6.02843994 -3.56530334 4.89672363 -3.56448364 3.73071289 C-3.39670737 0.37051028 -3.34132402 0.25702492 0 0 Z " fill="#E9EEED" transform="translate(3.4375,-0.1875)"/>
</svg>
