<?xml version="1.0" encoding="UTF-8"?>
<svg version="1.1" xmlns="http://www.w3.org/2000/svg" width="237" height="81">
<path d="M0 0 C2.5625 0.1875 2.5625 0.1875 4.5625 2.1875 C4.82992554 4.44200134 4.82992554 4.44200134 4.85302734 7.28881836 C4.86578705 8.35430405 4.87854675 9.41978973 4.89169312 10.51756287 C4.89391876 11.67579056 4.89614441 12.83401825 4.8984375 14.02734375 C4.9050943 15.21920792 4.9117511 16.41107208 4.91860962 17.63905334 C4.9287564 20.17024184 4.93342602 22.7014572 4.93310547 25.23266602 C4.93744705 29.07809761 4.97365944 32.92235221 5.01171875 36.76757812 C5.01759301 39.22916276 5.02155832 41.69075283 5.0234375 44.15234375 C5.03780853 45.29235336 5.05217957 46.43236298 5.06698608 47.60691833 C5.00966465 57.79685917 2.88053312 66.98166857 -4.4140625 74.4609375 C-11.6639722 80.64715388 -18.42242434 81.95241202 -27.875 81.609375 C-35.3857611 80.71994276 -41.14228063 77.60306526 -46.4375 72.1875 C-52.18605429 63.3543556 -53.34100708 55.59884321 -52.4375 45.1875 C-49.95161197 36.3707289 -43.95326148 30.84383028 -36.25 26.3125 C-28.3633163 23.15782652 -20.67424037 23.46719378 -12.67578125 26.04296875 C-9.50998364 27.66177975 -7.11344712 29.84843893 -4.4375 32.1875 C-4.39991577 30.78673218 -4.39991577 30.78673218 -4.36157227 29.35766602 C-4.26663072 25.90424811 -4.16738742 22.4510104 -4.06518555 18.99780273 C-4.02178187 17.50110731 -3.98011087 16.00436061 -3.94018555 14.50756836 C-3.88261384 12.36035688 -3.81888284 10.21340479 -3.75390625 8.06640625 C-3.71724854 6.7729126 -3.68059082 5.47941895 -3.64282227 4.14672852 C-3.37310983 0.25946999 -3.37310983 0.25946999 0 0 Z M-39.375 39.0625 C-44.19759851 45.2247092 -45.36426797 50.4050254 -44.4375 58.1875 C-42.57321905 64.87767278 -38.29046275 68.71418124 -32.4375 72.1875 C-26.70905171 74.09698276 -20.66187495 74.09935715 -15.125 71.5625 C-10.12976858 68.7167318 -6.61075836 64.52969455 -4.4375 59.1875 C-3.75327789 52.80735097 -3.48522682 46.49836709 -7.4375 41.1875 C-12.32321955 36.1076459 -16.62301478 32.83810611 -23.75 31.875 C-30.19201386 32.62407138 -34.9407014 34.15607357 -39.375 39.0625 Z " fill="#E9EEED" transform="translate(172.4375,-0.1875)"/>
<path d="M0 0 C4.87318174 3.69560055 8.23138168 9.16289504 10.14453125 14.90234375 C10.23851168 16.94227183 10.27445194 18.98525789 10.26953125 21.02734375 C10.27339844 22.63996094 10.27339844 22.63996094 10.27734375 24.28515625 C10.14453125 26.90234375 10.14453125 26.90234375 9.14453125 27.90234375 C6.5743364 28.01566468 4.03201648 28.0665186 1.4609375 28.0703125 C0.30488258 28.0753051 0.30488258 28.0753051 -0.87452698 28.08039856 C-2.50789796 28.08547085 -4.14127935 28.08780679 -5.7746582 28.08764648 C-8.27898174 28.08983155 -10.78286396 28.1079797 -13.28710938 28.12695312 C-14.87109224 28.12988722 -16.4550772 28.13187191 -18.0390625 28.1328125 C-18.79118515 28.13999802 -19.5433078 28.14718353 -20.31822205 28.15458679 C-25.62664596 28.13116654 -25.62664596 28.13116654 -27.85546875 25.90234375 C-27.60546875 23.33984375 -27.60546875 23.33984375 -26.85546875 20.90234375 C-24.08929312 19.51925594 -21.84528875 19.79024179 -18.75390625 19.8046875 C-17.5421875 19.80791016 -16.33046875 19.81113281 -15.08203125 19.81445312 C-13.81101563 19.82283203 -12.54 19.83121094 -11.23046875 19.83984375 C-9.95171875 19.84435547 -8.67296875 19.84886719 -7.35546875 19.85351562 C-4.18875583 19.86533172 -1.02213519 19.8818056 2.14453125 19.90234375 C1.40237978 18.29400277 0.64559729 16.69240846 -0.1171875 15.09375 C-0.74693481 13.75485718 -0.74693481 13.75485718 -1.3894043 12.38891602 C-4.06771179 7.84627458 -7.90899587 5.82821171 -12.83203125 4.28125 C-19.40611915 3.01095811 -25.24742268 5.20144414 -30.73046875 8.77734375 C-35.25338124 13.30025624 -36.58981493 17.33435683 -37.23046875 23.52734375 C-37.14892443 28.97042685 -34.87404632 33.46094706 -31.85546875 37.90234375 C-26.89386868 42.62826781 -21.29337294 43.31565714 -14.7109375 43.24609375 C-9.55968313 42.6259701 -5.77557202 40.14860155 -2.4296875 36.234375 C-2.01332031 35.69167969 -1.59695312 35.14898437 -1.16796875 34.58984375 C1.14453125 31.90234375 1.14453125 31.90234375 3.95703125 31.52734375 C4.67890625 31.65109375 5.40078125 31.77484375 6.14453125 31.90234375 C7.39453125 34.02734375 7.39453125 34.02734375 8.14453125 36.90234375 C5.11284504 43.09752862 -1.03467964 48.9709081 -7.5859375 51.42578125 C-16.24919534 53.24491629 -25.0116421 53.01773402 -32.70703125 48.44140625 C-39.61387978 43.49359112 -43.83237401 38.29399708 -45.85546875 29.90234375 C-47.09480877 20.23038091 -45.14679251 11.88863416 -39.23046875 4.08984375 C-28.6891121 -7.28514059 -12.71937603 -7.52451508 0 0 Z " fill="#E9EEED" transform="translate(226.85546875,29.09765625)"/>
<path d="M0 0 C2.5625 0.1875 2.5625 0.1875 4.5625 2.1875 C4.80300903 4.36416626 4.80300903 4.36416626 4.78955078 7.09619141 C4.78932419 8.62755234 4.78932419 8.62755234 4.78909302 10.18984985 C4.77877045 11.29509003 4.76844788 12.4003302 4.7578125 13.5390625 C4.7549826 14.6682309 4.75215271 15.79739929 4.74923706 16.96078491 C4.73801462 20.57812971 4.71290622 24.19522966 4.6875 27.8125 C4.67747287 30.2604131 4.66834656 32.70833007 4.66015625 35.15625 C4.63806857 41.16675064 4.60457074 47.17710783 4.5625 53.1875 C16.73148461 44.14689844 16.73148461 44.14689844 28.625 34.75 C41.65946227 24.12985929 41.65946227 24.12985929 45.5 24.375 C47.5625 25.1875 47.5625 25.1875 48.375 26.875 C48.436875 27.638125 48.49875 28.40125 48.5625 29.1875 C45.14099265 32.9587897 41.29318536 36.20221221 37.375 39.4375 C36.84197266 39.88351563 36.30894531 40.32953125 35.75976562 40.7890625 C31.82321429 44.05714286 31.82321429 44.05714286 29.5625 45.1875 C30.04519089 49.4412135 32.71764378 51.81743373 35.5625 54.75 C40.85083398 60.35063717 45.78677254 66.13824522 50.5625 72.1875 C51.43841797 73.24710938 51.43841797 73.24710938 52.33203125 74.328125 C53.5625 76.1875 53.5625 76.1875 53.25 78.9375 C53.023125 79.68 52.79625 80.4225 52.5625 81.1875 C49.89453125 81.51953125 49.89453125 81.51953125 46.5625 81.1875 C44.48116047 79.44646708 42.95484704 77.93020093 41.25 75.875 C40.77997559 75.33536621 40.30995117 74.79573242 39.82568359 74.23974609 C38.38381862 72.57208789 36.96994488 70.88426125 35.5625 69.1875 C34.72589844 68.18589844 33.88929687 67.18429688 33.02734375 66.15234375 C30.85252397 63.51278786 28.70474424 60.85349934 26.5625 58.1875 C24.90449521 56.18003284 23.23460952 54.18324362 21.5625 52.1875 C18.35680134 54.25694047 15.27618744 56.36579931 12.30859375 58.765625 C11.76396484 59.20390625 11.21933594 59.6421875 10.65820312 60.09375 C9.54270824 60.99770816 8.43339346 61.90934077 7.33007812 62.828125 C4.76877965 64.86987183 3.01072162 66.13077869 -0.27734375 66.546875 C-2.4375 66.1875 -2.4375 66.1875 -3.4375 65.1875 C-3.53680533 63.19862506 -3.56549462 61.20619583 -3.56689453 59.21484375 C-3.57004669 57.93681885 -3.57319885 56.65879395 -3.57644653 55.34204102 C-3.57465675 53.93636033 -3.5726058 52.53067995 -3.5703125 51.125 C-3.57098558 49.69392887 -3.57195564 48.26285785 -3.57321167 46.83178711 C-3.57468844 43.82892776 -3.57253476 40.8260981 -3.56787109 37.82324219 C-3.56217381 33.96597429 -3.56545292 30.10877596 -3.57144356 26.25151062 C-3.57504974 23.29536409 -3.57391032 20.33923417 -3.57131577 17.38308716 C-3.57064665 15.96045931 -3.57147437 14.53782997 -3.57379532 13.11520386 C-3.57632274 11.13018826 -3.57179042 9.14516741 -3.56689453 7.16015625 C-3.56609894 6.02843994 -3.56530334 4.89672363 -3.56448364 3.73071289 C-3.39670737 0.37051028 -3.34132402 0.25702492 0 0 Z " fill="#E9EEED" transform="translate(3.4375,-0.1875)"/>
<path d="M0 0 C5.80383602 4.64306881 10.36300718 9.79888815 11.8125 17.25 C12.81896834 27.76200263 11.45792156 34.83394511 5.625 43.5 C-1.3140705 50.28486893 -8.71906764 52.60420381 -18.28344727 52.63061523 C-27.01591872 52.42232543 -32.61336299 49.20482478 -38.625 43.0625 C-43.75067299 36.81849836 -45.85332126 29.66582697 -45.5390625 21.609375 C-44.30152769 13.30414139 -41.11070814 5.96837239 -34.3359375 0.8515625 C-23.0695823 -6.67384078 -11.6330526 -6.38677398 0 0 Z M-32.1875 10.25 C-36.45036246 16.1706423 -37.97944808 22.12996356 -36.8515625 29.421875 C-34.91090086 35.92435166 -29.91071082 39.98435447 -24.26171875 43.421875 C-19.48017129 45.33089206 -13.81109092 44.95859379 -8.90234375 43.6328125 C-3.44977404 41.25847579 -0.18482732 37.30085953 2.8125 32.25 C4.70590495 26.56978516 4.73381907 20.50898331 2.25 15 C-0.88495806 9.54693915 -4.95526645 6.09670928 -10.8125 3.875 C-19.00434714 2.35799127 -26.16786227 4.23036227 -32.1875 10.25 Z " fill="#E9EEED" transform="translate(103.1875,28.75)"/>
</svg>
